<?xml version="1.0" encoding="iso-8859-1"?>
<!-- Generator: Adobe Illustrator 16.0.0, SVG Export Plug-In . SVG Version: 6.00 Build 0)  -->
<!DOCTYPE svg PUBLIC "-//W3C//DTD SVG 1.1//EN" "http://www.w3.org/Graphics/SVG/1.1/DTD/svg11.dtd">
<svg xmlns="http://www.w3.org/2000/svg" xmlns:xlink="http://www.w3.org/1999/xlink" version="1.1" id="Capa_1" x="0px" y="0px" width="512px" height="512px" viewBox="0 0 955.126 955.125" style="enable-background:new 0 0 955.126 955.125;" xml:space="preserve">
<g>
	<path d="M391.227,241.763c-4.601,4.4-9.4,8.4-14.4,12l78.9,97.3v-111.2c0-6.6-5.4-12-12-12h-39.9   C400.026,232.763,395.826,237.363,391.227,241.763z" fill="#FFFFFF"/>
	<path d="M188.026,181.163c2,6.6,4.6,12.9,7.7,18.9c5.4,10.4,12.6,19.8,21,27.9c20.7,19.9,49.3,32.2,80.899,32.2   c14,0,27.301-2.4,39.7-6.8c4.3-1.5,8.4-3.3,12.4-5.2c3.6-1.8,7.1-3.7,10.399-5.8c6.601-4.2,12.801-9,18.4-14.4   c20.5-19.7,33.1-46.9,33.1-76.8c0-60.2-51.1-109-114-109c-62.899,0-114,48.8-114,109c0,5,0.4,9.8,1,14.6   C185.326,170.963,186.526,176.163,188.026,181.163z M297.626,95.463c45.301,0,82.101,24.9,82.101,55.6s-36.8,55.6-82.101,55.6   c-45.3,0-82.1-24.9-82.1-55.6S252.326,95.463,297.626,95.463z" fill="#FFFFFF"/>
	<path d="M69.227,185.363c2.3,4.3,5.4,8.1,9.2,11.1l58.4,46.3l69.6,55.1c-9.1,15.6-14.3,33.7-14.3,53.1v121.1v255v171   c0,26,21.1,47,47,47c26,0,47-21.1,47-47v-171h22.9v171c0,26,21.1,47,47,47c26,0,47-21.1,47-47v-171v-255v-43.4l39.2,49.5   c5.5,7,13.399,11.5,22.1,12.801c1.8,0.3,3.601,0.399,5.4,0.399h115c0.2,0,0.399,0,0.6,0v434.7c0,9.7,7.8,17.5,17.5,17.5   s17.5-7.8,17.5-17.5v-844.7c0-9.7-7.8-17.5-17.5-17.5s-17.5,7.8-17.5,17.5v340.101c-0.2,0-0.399,0-0.6,0h-98l-22.3-28.101   c0,0-93.5-116-106-128.5c-18.601,9.2-39.2,14.1-60.7,14.1c-35.3,0-68.6-13.2-93.6-37.1c-4.6-4.4-8.7-9-12.6-13.8   c-11.7-14.9-19.7-31.9-23.7-50.1l-39.9-31.6l-61.9-117.6c-6.3-11.9-18.4-18.7-31-18.7c-5.5,0-11.1,1.3-16.3,4   c-17.1,9-23.7,30.1-14.7,47.2L69.227,185.363z" fill="#FFFFFF"/>
	<path d="M653.727,274.163h289.399c6.601,0,12-5.4,12-12v-182.7c0-6.6-5.399-12-12-12H653.727c-6.601,0-12,5.4-12,12v182.7   C641.727,268.763,647.126,274.163,653.727,274.163z" fill="#FFFFFF"/>
	<g>
		<path d="M424.626,497.663v88.301h19.101c6.6,0,12-5.4,12-12v-62.7C444.126,510.063,433.326,505.263,424.626,497.663z" fill="#FFFFFF"/>
		<path d="M148.926,568.863h23.3v-100.2v-117.7c0-16.3,3.2-32.4,9.3-47.4l-44.6-35.3v288.6    C136.926,563.463,142.326,568.863,148.926,568.863z" fill="#FFFFFF"/>
	</g>
</g>
<g>
</g>
<g>
</g>
<g>
</g>
<g>
</g>
<g>
</g>
<g>
</g>
<g>
</g>
<g>
</g>
<g>
</g>
<g>
</g>
<g>
</g>
<g>
</g>
<g>
</g>
<g>
</g>
<g>
</g>
</svg>
