<?xml version="1.0" encoding="iso-8859-1"?>
<!-- Generator: Adobe Illustrator 19.1.0, SVG Export Plug-In . SVG Version: 6.00 Build 0)  -->
<svg xmlns="http://www.w3.org/2000/svg" xmlns:xlink="http://www.w3.org/1999/xlink" version="1.1" id="Capa_1" x="0px" y="0px" viewBox="0 0 568.116 568.116" style="enable-background:new 0 0 568.116 568.116;" xml:space="preserve" width="512px" height="512px">
<g>
	<g>
		<path d="M223.765,309.542c-2.486-2.486-4.973-2.486-7.459-2.486h-126.8c-2.486,0-7.459,0-7.459,2.486l-64.643,59.671    c-2.486,2.486-4.973,4.973-4.973,9.945c0,2.486,2.486,7.459,4.973,9.945l37.294,29.835L17.404,451.26    c-2.486,2.486-4.973,4.973-4.973,9.945c0,2.486,2.486,7.459,4.973,9.945l94.479,94.479c2.486,2.486,4.973,2.486,7.459,2.486    c2.486,0,4.973,0,4.973-2.486l126.8-64.643c2.486-2.486,4.973-4.973,7.459-7.459l32.322-109.396c2.486-4.973,0-9.945-2.486-12.431    L223.765,309.542z M238.683,481.096l-114.369,59.671l-79.561-77.075l37.294-34.808c2.486-4.973,2.486-7.459,2.486-12.431    c0-2.486-2.486-7.459-4.973-9.945l-37.294-29.835l49.726-47.239h116.855l54.698,52.212L238.683,481.096z" fill="#FFFFFF"/>
		<path d="M121.828,284.679c2.486,0,7.459,0,9.945-2.486l156.636-156.636c4.973-4.973,4.973-12.431,0-17.404    c-4.973-4.973-12.431-4.973-17.404,0L114.369,264.789c-4.973,4.973-4.973,12.431,0,17.404    C116.855,284.679,119.342,284.679,121.828,284.679z" fill="#FFFFFF"/>
		<path d="M253.601,259.817c2.486,0,7.459,0,9.945-2.486L499.743,21.133c4.973-4.973,4.973-12.431,0-17.404s-12.431-4.973-17.404,0    L246.142,239.926c-4.973,4.973-4.973,12.431,0,17.404C246.142,257.33,251.115,259.817,253.601,259.817z" fill="#FFFFFF"/>
		<path d="M479.853,264.789L323.217,421.425c-4.973,4.973-4.973,12.431,0,17.404c2.486,2.486,4.973,2.486,9.945,2.486    c4.973,0,7.459,0,9.945-2.486l156.636-156.636c4.973-4.973,4.973-12.431,0-17.404C494.77,259.817,484.825,259.817,479.853,264.789    z" fill="#FFFFFF"/>
		<path d="M432.613,197.659c-4.973-4.973-12.431-4.973-17.404,0L298.354,314.515c-4.973,4.973-4.973,12.431,0,17.404    c2.486,2.486,4.973,2.486,9.945,2.486c4.973,0,7.459,0,9.945-2.486l114.369-116.855    C437.586,210.091,437.586,202.632,432.613,197.659z" fill="#FFFFFF"/>
		<path d="M551.955,80.804c-4.973-4.973-12.431-4.973-17.404,0l-17.404,17.404l-17.404-17.404c-4.973-4.973-12.431-4.973-17.404,0    c-4.973,4.973-4.973,12.431,0,17.404l17.404,17.404l-19.89,17.404c-4.973,4.973-4.973,12.431,0,17.404    c2.486,2.486,4.973,2.486,9.945,2.486s7.459,0,9.945-2.486l14.918-17.404l17.404,17.404c2.486,2.486,4.973,2.486,9.945,2.486    s7.459,0,9.945-2.486c4.973-4.973,4.973-12.431,0-17.404l-17.404-17.404l17.404-17.404    C556.927,93.236,556.927,85.777,551.955,80.804z" fill="#FFFFFF"/>
		<path d="M62.157,150.42c2.486,2.486,4.973,2.486,9.945,2.486s7.459,0,9.945-2.486l27.349-29.835l29.835,29.835    c2.486,2.486,4.973,2.486,9.945,2.486c4.973,0,7.459,0,9.945-2.486c4.973-4.973,4.973-12.431,0-17.404L126.8,103.181    l29.835-29.835c4.973-4.973,4.973-12.431,0-17.404s-12.431-4.973-17.404,0l-29.835,29.835L79.561,53.455    c-4.973-4.973-12.431-4.973-17.404,0s-4.973,12.431,0,17.404l29.835,29.835l-29.835,32.322    C57.184,137.989,57.184,145.448,62.157,150.42z" fill="#FFFFFF"/>
		<path d="M367.97,473.637c-4.973-4.973-12.431-4.973-17.404,0l-4.973,4.973l-4.973-4.973c-4.973-4.973-12.431-4.973-17.404,0    c-4.973,4.973-4.973,12.431,0,17.404l4.973,4.973l-4.973,4.973c-4.973,4.973-4.973,12.431,0,17.404    c2.486,2.486,4.973,2.486,9.945,2.486c4.973,0,7.459,0,9.945-2.486l4.973-4.973l4.973,4.973c2.486,2.486,4.973,2.486,9.945,2.486    c4.973,0,7.459,0,9.945-2.486c4.973-4.973,4.973-12.431,0-17.404l-4.973-4.973l4.973-4.973    C372.942,486.068,372.942,478.609,367.97,473.637z" fill="#FFFFFF"/>
	</g>
</g>
<g>
</g>
<g>
</g>
<g>
</g>
<g>
</g>
<g>
</g>
<g>
</g>
<g>
</g>
<g>
</g>
<g>
</g>
<g>
</g>
<g>
</g>
<g>
</g>
<g>
</g>
<g>
</g>
<g>
</g>
</svg>
